# xmcd
#
# Track frame offsets:
#	150
#	15138
#	29609
#	41070
#	53844
#	65150
#	77618
#	89808
#	94540
#	109060
#	121652
#	134182
#	147628
#	161212
#	174688
#	186646
#
# Disc length: 2666 seconds
#
# Revision: 1
# Processed by: cddbd v1.5.2PL0 Copyright (c) Steve Scherf et al.
# Submitted via: audiograbber 1.83.01
#
DISCID=ed0a6810
DTITLE=Jean Gabin - Master Serie
DYEAR=1900
DGENRE=
TTITLE0=Quand on s'promène au bord de l'eau
TTITLE1=Avec ma petite gueule
TTITLE2=Je ne dis pas non
TTITLE3=Léo, Léa, Élie
TTITLE4=Ingénuement, naivement
TTITLE5=C'est chouette d'être un monsieur
TTITLE6=Quand on a ça
TTITLE7=Vive les grosses dames
TTITLE8=C'est moi le mari
TTITLE9=Viens Fifine
TTITLE10=La môme caoutchouc
TTITLE11=Qu'est-ce que tu dis d'ça
TTITLE12=La Java de doudone
TTITLE13=Julie c'est Julie
TTITLE14=C'est un petit rien
TTITLE15=On m'suit
EXTD=
EXTT0=
EXTT1=
EXTT2=
EXTT3=
EXTT4=
EXTT5=
EXTT6=
EXTT7=
EXTT8=
EXTT9=
EXTT10=
EXTT11=
EXTT12=
EXTT13=
EXTT14=
EXTT15=
PLAYORDER=
